<svg width="473" height="315" viewBox="0 0 473 315" fill="none" xmlns="http://www.w3.org/2000/svg">
<g clip-path="url(#clip0_14_54)">
<rect width="472.5" height="315" fill="url(#paint0_linear_14_54)"/>
<g clip-path="url(#clip1_14_54)">
<path d="M67.506 74.0211C67.8394 74.0211 68.1727 74.0211 68.506 74.0211C72.8792 74.0211 77.2535 74.0262 81.6286 74.0314C90.3814 74.0416 99.1369 74.0519 107.891 74.0211L107.892 74.0211C123.507 73.9455 136.739 80.0431 147.861 90.3844L147.861 90.3845C166.04 107.278 174.764 128.495 175.241 153.192C175.473 165.336 174.849 177.252 170.868 188.709L170.868 188.709C165 205.626 155.725 220.134 140.841 230.471L140.841 230.471C130.196 237.869 118.342 241.624 105.161 241.518H105.16C86.468 241.376 67.7653 241.404 49.0712 241.433C41.4264 241.445 33.7831 241.456 26.1424 241.456C22.6282 241.456 20.3666 240.706 18.9638 239.303C17.5609 237.899 16.8117 235.637 16.8117 232.124L16.8117 232.122C16.7962 224.1 16.7962 216.079 16.8117 208.057C16.8117 208.057 16.8117 208.057 16.8117 208.057C16.8117 208.057 16.8117 208.057 16.8117 208.057C16.8192 205.024 17.6061 202.889 18.9887 201.507C20.371 200.126 22.5076 199.338 25.5521 199.338H25.5527C49.8334 199.323 74.0985 199.323 98.3796 199.323C100.125 199.323 101.856 199.307 103.602 199.276H103.602C111.676 199.132 117.876 195.589 122.804 189.431L122.805 189.43C128.152 182.738 130.714 175.043 132.097 166.954L132.097 166.953C134.247 154.309 132.316 142.245 126.342 130.872L126.342 130.872L126.336 130.86C126.034 130.305 125.683 129.791 125.347 129.316C125.27 129.207 125.194 129.1 125.119 128.995C124.86 128.631 124.617 128.29 124.388 127.934L124.388 127.933C118.859 119.311 110.726 115.753 100.707 115.785C91.4309 115.814 82.1489 115.801 72.8642 115.788C57.7081 115.767 42.5449 115.746 27.3902 115.908C23.8467 115.945 21.2863 115.154 19.64 113.6C18.0101 112.061 17.0887 109.596 17.215 105.855L17.2151 105.853C17.3778 100.713 17.3415 95.5478 17.3053 90.4073C17.2862 87.6786 17.267 84.9569 17.2777 82.2497C17.2925 79.4014 18.0555 77.3924 19.3812 76.088C20.7091 74.7814 22.7574 74.0285 25.6627 74.0211C35.18 74.0108 44.7036 74.0143 54.2258 74.0177C58.6531 74.0193 63.0801 74.0209 67.506 74.0211Z" stroke="url(#paint1_linear_14_54)" stroke-width="2"/>
<mask id="path-2-inside-1_14_54" fill="white">
<path fill-rule="evenodd" clip-rule="evenodd" d="M25.427 11.7792H89.3375C95.1813 11.7792 101.025 11.7834 106.869 11.7875C120.507 11.7972 134.147 11.8069 147.795 11.7638C178.958 11.6714 205.632 22.8357 228.452 43.4395C230.302 45.1106 232.1 46.8133 233.845 48.5472C217.812 55.5526 204.975 68.5107 198.129 84.6279C192.072 78.4186 185.074 73.0647 177.048 68.7247C167.012 63.3042 155.936 61.21 144.564 61.1792C105.09 61.0868 65.6313 61.0714 26.1571 61.21C19.4305 61.2254 15.5779 57.391 15.7487 50.8311C15.9288 44.1325 15.8922 37.4339 15.8556 30.7354C15.8385 27.6094 15.8215 24.4834 15.8264 21.3574C15.8419 15.1362 19.1975 11.7792 25.427 11.7792ZM225.652 170.035C223.244 192.032 215.088 211.61 199.713 228.197C191.246 237.344 181.755 245.12 169.746 249.309C160.782 252.435 151.539 253.851 142.032 253.836C103.148 253.805 64.2487 253.821 25.3648 253.836C19.2441 253.836 15.8264 257.208 15.8109 263.229C15.7798 273.3 15.7953 283.371 15.8109 293.427C15.8264 299.971 19.0887 303.221 25.6911 303.221C33.8968 303.221 42.102 303.221 50.3067 303.222C83.1402 303.224 115.968 303.227 148.805 303.19C152.596 303.19 156.402 302.943 160.177 302.589C176.209 301.096 191.184 296.183 205.104 288.253C234.262 271.653 253.945 246.953 266.668 216.478C271.79 204.2 274.713 191.464 276.121 178.393C271.342 179.447 266.375 180.003 261.279 180.003C248.232 180.003 236.036 176.36 225.652 170.035Z"/>
</mask>
<path d="M106.869 11.7875L106.868 13.7875L106.869 11.7875ZM147.795 11.7638L147.789 9.76381L147.789 9.76381L147.795 11.7638ZM228.452 43.4395L229.793 41.9554L229.793 41.9551L228.452 43.4395ZM233.845 48.5472L234.646 50.3799L237.341 49.202L235.255 47.1284L233.845 48.5472ZM198.129 84.6279L196.697 86.0243L198.795 88.1751L199.969 85.4099L198.129 84.6279ZM177.048 68.7247L177.999 66.9654L177.998 66.965L177.048 68.7247ZM144.564 61.1792L144.569 59.1792L144.569 59.1792L144.564 61.1792ZM26.1571 61.21L26.1617 63.21L26.1641 63.21L26.1571 61.21ZM15.7487 50.8311L13.7495 50.7773L13.7494 50.779L15.7487 50.8311ZM15.8556 30.7354L13.8557 30.7463L15.8556 30.7354ZM15.8264 21.3574L13.8264 21.3524L13.8264 21.3542L15.8264 21.3574ZM225.652 170.035L226.693 168.327L224.007 166.691L223.664 169.818L225.652 170.035ZM199.713 228.197L198.246 226.837L198.245 226.838L199.713 228.197ZM169.746 249.309L170.405 251.197L170.405 251.197L169.746 249.309ZM142.032 253.836L142.035 251.836H142.033L142.032 253.836ZM25.3648 253.836V255.836H25.3656L25.3648 253.836ZM15.8109 263.229L17.8109 263.236L17.8109 263.235L15.8109 263.229ZM15.8109 293.427L13.8109 293.43L13.8109 293.432L15.8109 293.427ZM50.3067 303.222L50.3069 301.222L50.3067 303.222ZM148.805 303.19V301.19H148.803L148.805 303.19ZM160.177 302.589L159.991 300.598L159.99 300.598L160.177 302.589ZM205.104 288.253L204.114 286.515L204.113 286.515L205.104 288.253ZM266.668 216.478L268.514 217.249L268.514 217.248L266.668 216.478ZM276.121 178.393L278.109 178.607L278.407 175.841L275.69 176.44L276.121 178.393ZM89.3375 9.7792H25.427V13.7792H89.3375V9.7792ZM106.871 9.78751C101.027 9.78335 95.1821 9.7792 89.3375 9.7792V13.7792C95.1805 13.7792 101.024 13.7834 106.868 13.7875L106.871 9.78751ZM147.789 9.76381C134.146 9.80691 120.509 9.79721 106.871 9.78751L106.868 13.7875C120.505 13.7972 134.149 13.8069 147.802 13.7638L147.789 9.76381ZM229.793 41.9551C206.633 21.0454 179.489 9.66982 147.789 9.76381L147.801 13.7638C178.428 13.673 204.63 24.6259 227.112 44.924L229.793 41.9551ZM235.255 47.1284C233.487 45.372 231.666 43.6475 229.793 41.9554L227.112 44.9237C228.938 46.5738 230.713 48.2546 232.435 49.9659L235.255 47.1284ZM199.969 85.4099C206.616 69.7633 219.081 57.1809 234.646 50.3799L233.044 46.7145C216.544 53.9243 203.335 67.2582 196.288 83.8459L199.969 85.4099ZM176.096 70.484C183.943 74.7264 190.779 79.9572 196.697 86.0243L199.56 83.2314C193.365 76.88 186.206 71.403 177.999 66.9654L176.096 70.484ZM144.559 63.1792C155.691 63.2093 166.423 65.259 176.097 70.4844L177.998 66.965C167.601 61.3495 156.18 59.2106 144.569 59.1792L144.559 63.1792ZM26.1641 63.21C65.6332 63.0714 105.088 63.0868 144.559 63.1792L144.569 59.1792C105.092 59.0868 65.6293 59.0714 26.1501 59.21L26.1641 63.21ZM13.7494 50.779C13.6535 54.4606 14.6889 57.6449 16.9545 59.9029C19.2125 62.1532 22.4264 63.2185 26.1617 63.21L26.1525 59.21C23.1612 59.2168 21.0855 58.3727 19.7782 57.0697C18.4785 55.7744 17.6731 53.7615 17.7481 50.8831L13.7494 50.779ZM13.8557 30.7463C13.8923 37.4502 13.9285 44.1165 13.7495 50.7773L17.748 50.8848C17.9291 44.1485 17.8922 37.4176 17.8556 30.7244L13.8557 30.7463ZM13.8264 21.3542C13.8215 24.4884 13.8386 27.6215 13.8557 30.7463L17.8556 30.7244C17.8385 27.5973 17.8215 24.4783 17.8264 21.3605L13.8264 21.3542ZM25.427 9.7792C21.9656 9.7792 18.9902 10.7166 16.8834 12.82C14.7769 14.9231 13.8351 17.896 13.8264 21.3524L17.8264 21.3624C17.8333 18.5976 18.577 16.7814 19.7095 15.6507C20.8418 14.5203 22.6589 13.7792 25.427 13.7792V9.7792ZM223.664 169.818C221.298 191.43 213.301 210.596 198.246 226.837L201.18 229.556C216.874 212.625 225.19 192.633 227.641 170.253L223.664 169.818ZM198.245 226.838C189.893 235.861 180.666 243.382 169.087 247.42L170.405 251.197C182.843 246.859 192.599 238.826 201.181 229.555L198.245 226.838ZM169.088 247.42C160.355 250.466 151.338 251.851 142.035 251.836L142.029 255.836C151.741 255.852 161.21 254.404 170.405 251.197L169.088 247.42ZM142.033 251.836C103.148 251.805 64.2477 251.821 25.364 251.836L25.3656 255.836C64.2497 255.821 103.148 255.805 142.03 255.836L142.033 251.836ZM25.3648 251.836C21.9469 251.836 18.9955 252.783 16.8955 254.849C14.7916 256.92 13.8196 259.842 13.8109 263.224L17.8109 263.235C17.8177 260.596 18.5623 258.821 19.7013 257.7C20.8442 256.575 22.662 255.836 25.3648 255.836V251.836ZM13.8109 263.223C13.7798 273.3 13.7953 283.375 13.8109 293.43L17.8109 293.424C17.7953 283.367 17.7798 273.301 17.8109 263.236L13.8109 263.223ZM13.8109 293.432C13.8194 297.01 14.7176 300.059 16.8721 302.198C19.0247 304.334 22.0892 305.221 25.6911 305.221V301.221C22.6906 301.221 20.8228 300.483 19.6898 299.358C18.5586 298.236 17.8179 296.388 17.8109 293.422L13.8109 293.432ZM25.6911 305.221C33.8967 305.221 42.1018 305.221 50.3066 305.222L50.3069 301.222C42.1021 301.221 33.8969 301.221 25.6911 301.221V305.221ZM50.3066 305.222C83.1398 305.224 115.968 305.227 148.807 305.19L148.803 301.19C115.967 301.227 83.1405 301.224 50.3069 301.222L50.3066 305.222ZM148.805 305.19C152.68 305.19 156.552 304.938 160.363 304.58L159.99 300.598C156.251 300.949 152.512 301.19 148.805 301.19V305.19ZM160.362 304.581C176.692 303.059 191.94 298.054 206.094 289.99L204.113 286.515C190.428 294.312 175.725 299.132 159.991 300.598L160.362 304.581ZM206.093 289.991C235.694 273.139 255.648 248.066 268.514 217.249L264.823 215.708C252.243 245.84 232.831 270.166 204.114 286.515L206.093 289.991ZM268.514 217.248C273.722 204.763 276.684 191.835 278.109 178.607L274.132 178.179C272.741 191.093 269.858 203.637 264.822 215.708L268.514 217.248ZM275.69 176.44C271.051 177.463 266.229 178.003 261.279 178.003V182.003C266.521 182.003 271.632 181.432 276.552 180.346L275.69 176.44ZM261.279 178.003C248.609 178.003 236.772 174.467 226.693 168.327L224.612 171.744C235.3 178.254 247.855 182.003 261.279 182.003V178.003Z" fill="url(#paint2_linear_14_54)" mask="url(#path-2-inside-1_14_54)"/>
</g>
<path d="M377.976 228.671C383.426 236.685 394.075 239.043 401.636 233.902C409.197 228.761 410.92 217.991 405.47 209.976L303.782 60.4243C298.332 52.4099 287.683 50.052 280.122 55.193C272.561 60.3339 270.839 71.1043 276.288 79.1187L377.976 228.671Z" fill="#FC6803"/>
<path d="M377.976 228.671C383.426 236.685 394.075 239.043 401.636 233.902C409.197 228.761 410.92 217.991 405.47 209.976L303.782 60.4243C298.332 52.4099 287.683 50.052 280.122 55.193C272.561 60.3339 270.839 71.1043 276.288 79.1187L377.976 228.671Z" fill="url(#paint3_linear_14_54)" fill-opacity="0.6"/>
<path d="M288.418 108.97L298.648 122.369L304.48 118.037L327.848 100.681L333.7 96.3349L323.47 82.936L329.165 78.5779L371.755 46.8155L371.755 46.8143C348.823 41.8734 326.965 43.5665 307.786 50.5768C302.884 52.3686 298.235 54.5329 293.723 57.0021C293.714 57.0071 293.705 57.0121 293.696 57.0171C285.484 61.5133 278.002 67.1011 271.35 73.6407C271.343 73.6479 271.335 73.6551 271.328 73.6623C267.666 77.2648 264.277 81.1526 261.17 85.3138C249.041 101.557 241.356 121.892 239.831 145.052L282.56 113.318L288.418 108.97Z" fill="#6F6F6F"/>
</g>
<defs>
<linearGradient id="paint0_linear_14_54" x1="236.25" y1="0" x2="236.25" y2="315" gradientUnits="userSpaceOnUse">
<stop offset="1" stop-color="white" stop-opacity="0"/>
</linearGradient>
<linearGradient id="paint1_linear_14_54" x1="35.5" y1="73" x2="96.0416" y2="242.52" gradientUnits="userSpaceOnUse">
<stop stop-color="#FC6803"/>
<stop offset="1" stop-color="#7D1386"/>
</linearGradient>
<linearGradient id="paint2_linear_14_54" x1="55" y1="12" x2="145.932" y2="303.223" gradientUnits="userSpaceOnUse">
<stop stop-color="#FC6803"/>
<stop offset="1" stop-color="#7D1386"/>
</linearGradient>
<linearGradient id="paint3_linear_14_54" x1="411" y1="285" x2="235.5" y2="106" gradientUnits="userSpaceOnUse">
<stop/>
<stop offset="0.185417" stop-opacity="0.57"/>
<stop offset="1" stop-opacity="0"/>
</linearGradient>
<clipPath id="clip0_14_54">
<rect width="472.5" height="315" fill="white"/>
</clipPath>
<clipPath id="clip1_14_54">
<rect width="261.468" height="291.472" fill="white" transform="translate(15.75 11.7639)"/>
</clipPath>
</defs>
</svg>
