<svg width="224" height="32" viewBox="0 0 224 32" fill="none" xmlns="http://www.w3.org/2000/svg">
<path d="M26.7429 0H0V4.11429H5.48571V8.91429H8.91429V4.11429H22.6286L10.6286 17.4857L5.48571 11.6571L4.8 12.3429L3.42857 13.7143L2.4 14.7429L3.42857 15.7714L10.9714 24L15.7714 18.5143L21.2571 24L39.4286 2.74286L36.3429 0L20.9143 17.4857L18.5143 15.0857L28.8 3.42857V2.05714L26.7429 0Z" fill="white"/>
<path d="M56.8864 24.3977H49V1.125H57.0455C59.3561 1.125 61.3409 1.59091 63 2.52273C64.6667 3.44697 65.947 4.77651 66.8409 6.51136C67.7348 8.24621 68.1818 10.322 68.1818 12.7386C68.1818 15.1629 67.7311 17.2462 66.8295 18.9886C65.9356 20.7311 64.6439 22.0682 62.9545 23C61.2727 23.9318 59.25 24.3977 56.8864 24.3977ZM53.2159 20.75H56.6818C58.303 20.75 59.6553 20.4545 60.7386 19.8636C61.822 19.2652 62.6364 18.375 63.1818 17.1932C63.7273 16.0038 64 14.5189 64 12.7386C64 10.9583 63.7273 9.48106 63.1818 8.30682C62.6364 7.125 61.8295 6.24243 60.7614 5.65909C59.7008 5.06818 58.3826 4.77273 56.8068 4.77273H53.2159V20.75Z" fill="white"/>
<path d="M74.0511 1.125L80.108 19.4432H80.3466L86.392 1.125H91.0284L82.8239 24.3977H77.6193L69.4261 1.125H74.0511Z" fill="white"/>
<path d="M109.918 24.3977H102.031V1.125H110.077C112.387 1.125 114.372 1.59091 116.031 2.52273C117.698 3.44697 118.978 4.77651 119.872 6.51136C120.766 8.24621 121.213 10.322 121.213 12.7386C121.213 15.1629 120.762 17.2462 119.861 18.9886C118.967 20.7311 117.675 22.0682 115.986 23C114.304 23.9318 112.281 24.3977 109.918 24.3977ZM106.247 20.75H109.713C111.334 20.75 112.687 20.4545 113.77 19.8636C114.853 19.2652 115.668 18.375 116.213 17.1932C116.759 16.0038 117.031 14.5189 117.031 12.7386C117.031 10.9583 116.759 9.48106 116.213 8.30682C115.668 7.125 114.861 6.24243 113.793 5.65909C112.732 5.06818 111.414 4.77273 109.838 4.77273H106.247V20.75Z" fill="white"/>
<path d="M132.764 24.7386C131.014 24.7386 129.503 24.375 128.23 23.6477C126.965 22.9129 125.991 21.875 125.31 20.5341C124.628 19.1856 124.287 17.5985 124.287 15.7727C124.287 13.9773 124.628 12.4015 125.31 11.0455C125.999 9.68182 126.961 8.62121 128.196 7.86364C129.431 7.09849 130.882 6.71591 132.548 6.71591C133.624 6.71591 134.639 6.89015 135.594 7.23864C136.556 7.57955 137.404 8.10985 138.139 8.82955C138.882 9.54924 139.465 10.4659 139.889 11.5795C140.313 12.6856 140.526 14.0038 140.526 15.5341V16.7955H126.219V14.0227H136.582C136.575 13.2348 136.404 12.5341 136.071 11.9205C135.738 11.2992 135.272 10.8106 134.673 10.4545C134.082 10.0985 133.393 9.92045 132.605 9.92045C131.764 9.92045 131.026 10.125 130.389 10.5341C129.753 10.9356 129.257 11.4659 128.901 12.125C128.552 12.7765 128.374 13.4924 128.366 14.2727V16.6932C128.366 17.7083 128.552 18.5795 128.923 19.3068C129.295 20.0265 129.813 20.5795 130.48 20.9659C131.147 21.3447 131.927 21.5341 132.821 21.5341C133.42 21.5341 133.961 21.4508 134.446 21.2841C134.931 21.1098 135.351 20.8561 135.707 20.5227C136.063 20.1894 136.332 19.7765 136.514 19.2841L140.355 19.7159C140.113 20.7311 139.651 21.6174 138.969 22.375C138.295 23.125 137.431 23.7083 136.378 24.125C135.325 24.5341 134.12 24.7386 132.764 24.7386Z" fill="white"/>
<path d="M157.801 11.5568L154.051 11.9659C153.945 11.5871 153.759 11.2311 153.494 10.8977C153.237 10.5644 152.888 10.2955 152.449 10.0909C152.009 9.88636 151.472 9.78409 150.835 9.78409C149.979 9.78409 149.259 9.9697 148.676 10.3409C148.1 10.7121 147.816 11.1932 147.824 11.7841C147.816 12.2917 148.002 12.7045 148.381 13.0227C148.767 13.3409 149.403 13.6023 150.29 13.8068L153.267 14.4432C154.919 14.7992 156.146 15.3636 156.949 16.1364C157.759 16.9091 158.169 17.9205 158.176 19.1705C158.169 20.2689 157.847 21.2386 157.21 22.0795C156.581 22.9129 155.706 23.5644 154.585 24.0341C153.464 24.5038 152.176 24.7386 150.722 24.7386C148.585 24.7386 146.866 24.2917 145.562 23.3977C144.259 22.4962 143.483 21.2424 143.233 19.6364L147.244 19.25C147.426 20.0379 147.813 20.6326 148.403 21.0341C148.994 21.4356 149.763 21.6364 150.71 21.6364C151.688 21.6364 152.472 21.4356 153.062 21.0341C153.661 20.6326 153.96 20.1364 153.96 19.5455C153.96 19.0455 153.767 18.6326 153.381 18.3068C153.002 17.9811 152.411 17.7311 151.608 17.5568L148.631 16.9318C146.956 16.5833 145.718 15.9962 144.915 15.1705C144.112 14.3371 143.714 13.2841 143.722 12.0114C143.714 10.9356 144.006 10.0038 144.597 9.21591C145.195 8.42045 146.025 7.80682 147.085 7.375C148.153 6.93561 149.384 6.71591 150.778 6.71591C152.824 6.71591 154.434 7.15152 155.608 8.02273C156.79 8.89394 157.521 10.072 157.801 11.5568Z" fill="white"/>
<path d="M161.568 24.3977V6.94318H165.682V24.3977H161.568ZM163.636 4.46591C162.985 4.46591 162.424 4.25 161.955 3.81818C161.485 3.37879 161.25 2.85227 161.25 2.23864C161.25 1.61742 161.485 1.09091 161.955 0.65909C162.424 0.219697 162.985 0 163.636 0C164.295 0 164.856 0.219697 165.318 0.65909C165.788 1.09091 166.023 1.61742 166.023 2.23864C166.023 2.85227 165.788 3.37879 165.318 3.81818C164.856 4.25 164.295 4.46591 163.636 4.46591Z" fill="white"/>
<path d="M177.503 31.3068C176.026 31.3068 174.757 31.1061 173.696 30.7045C172.635 30.3106 171.783 29.7803 171.139 29.1136C170.495 28.447 170.048 27.7083 169.798 26.8977L173.503 26C173.67 26.3409 173.912 26.678 174.23 27.0114C174.548 27.3523 174.976 27.6326 175.514 27.8523C176.06 28.0795 176.745 28.1932 177.571 28.1932C178.738 28.1932 179.704 27.9091 180.469 27.3409C181.234 26.7803 181.616 25.8561 181.616 24.5682V21.2614H181.412C181.2 21.6856 180.889 22.1212 180.48 22.5682C180.079 23.0152 179.545 23.3902 178.878 23.6932C178.219 23.9962 177.389 24.1477 176.389 24.1477C175.048 24.1477 173.832 23.8333 172.741 23.2045C171.658 22.5682 170.795 21.6212 170.151 20.3636C169.514 19.0985 169.196 17.5152 169.196 15.6136C169.196 13.697 169.514 12.0795 170.151 10.7614C170.795 9.43561 171.662 8.43182 172.753 7.75C173.844 7.06061 175.06 6.71591 176.401 6.71591C177.423 6.71591 178.264 6.89015 178.923 7.23864C179.59 7.57955 180.12 7.99242 180.514 8.47727C180.908 8.95455 181.207 9.4053 181.412 9.82955H181.639V6.94318H185.696V24.6818C185.696 26.1742 185.34 27.4091 184.628 28.3864C183.916 29.3636 182.942 30.0947 181.707 30.5795C180.473 31.0644 179.071 31.3068 177.503 31.3068ZM177.537 20.9205C178.408 20.9205 179.151 20.7083 179.764 20.2841C180.378 19.8598 180.844 19.25 181.162 18.4545C181.48 17.6591 181.639 16.7045 181.639 15.5909C181.639 14.4924 181.48 13.5303 181.162 12.7045C180.851 11.8788 180.389 11.2386 179.776 10.7841C179.17 10.322 178.423 10.0909 177.537 10.0909C176.62 10.0909 175.855 10.3295 175.241 10.8068C174.628 11.2841 174.166 11.9394 173.855 12.7727C173.545 13.5985 173.389 14.5379 173.389 15.5909C173.389 16.6591 173.545 17.5947 173.855 18.3977C174.173 19.1932 174.639 19.8144 175.253 20.2614C175.874 20.7008 176.635 20.9205 177.537 20.9205Z" fill="white"/>
<path d="M194.026 14.1705V24.3977H189.912V6.94318H193.844V9.90909H194.048C194.45 8.93182 195.09 8.1553 195.969 7.57955C196.855 7.00379 197.95 6.71591 199.253 6.71591C200.457 6.71591 201.507 6.97349 202.401 7.48864C203.302 8.00379 203.999 8.75 204.491 9.72727C204.991 10.7045 205.238 11.8902 205.23 13.2841V24.3977H201.116V13.9205C201.116 12.7538 200.813 11.8409 200.207 11.1818C199.609 10.5227 198.779 10.1932 197.719 10.1932C196.999 10.1932 196.359 10.3523 195.798 10.6705C195.245 10.9811 194.81 11.4318 194.491 12.0227C194.181 12.6136 194.026 13.3295 194.026 14.1705Z" fill="white"/>
<path d="M223.207 11.5568L219.457 11.9659C219.351 11.5871 219.166 11.2311 218.901 10.8977C218.643 10.5644 218.295 10.2955 217.855 10.0909C217.416 9.88636 216.878 9.78409 216.241 9.78409C215.385 9.78409 214.666 9.9697 214.082 10.3409C213.507 10.7121 213.223 11.1932 213.23 11.7841C213.223 12.2917 213.408 12.7045 213.787 13.0227C214.173 13.3409 214.81 13.6023 215.696 13.8068L218.673 14.4432C220.325 14.7992 221.552 15.3636 222.355 16.1364C223.166 16.9091 223.575 17.9205 223.582 19.1705C223.575 20.2689 223.253 21.2386 222.616 22.0795C221.988 22.9129 221.113 23.5644 219.991 24.0341C218.87 24.5038 217.582 24.7386 216.128 24.7386C213.991 24.7386 212.272 24.2917 210.969 23.3977C209.666 22.4962 208.889 21.2424 208.639 19.6364L212.651 19.25C212.832 20.0379 213.219 20.6326 213.81 21.0341C214.401 21.4356 215.17 21.6364 216.116 21.6364C217.094 21.6364 217.878 21.4356 218.469 21.0341C219.067 20.6326 219.366 20.1364 219.366 19.5455C219.366 19.0455 219.173 18.6326 218.787 18.3068C218.408 17.9811 217.817 17.7311 217.014 17.5568L214.037 16.9318C212.363 16.5833 211.124 15.9962 210.321 15.1705C209.518 14.3371 209.12 13.2841 209.128 12.0114C209.12 10.9356 209.412 10.0038 210.003 9.21591C210.601 8.42045 211.431 7.80682 212.491 7.375C213.56 6.93561 214.791 6.71591 216.185 6.71591C218.23 6.71591 219.84 7.15152 221.014 8.02273C222.196 8.89394 222.927 10.072 223.207 11.5568Z" fill="white"/>
</svg>
