<svg width="199" height="40" viewBox="0 0 199 40" fill="none" xmlns="http://www.w3.org/2000/svg">
<g clip-path="url(#clip0_14_53)">
<g clip-path="url(#clip1_14_53)">
<path d="M8.69923 9.27252C8.69923 9.27057 8.69923 9.27057 8.69923 9.27252C6.88634 9.27252 5.07147 9.27057 3.25857 9.27252C2.47936 9.27448 2.07101 9.6773 2.06707 10.4438C2.06312 11.4411 2.09074 12.4403 2.05918 13.4376C2.02564 14.4309 2.54643 14.8553 3.47951 14.8455C6.58254 14.8123 9.68558 14.8396 12.7886 14.8299C14.0255 14.8259 15.0138 15.262 15.6885 16.314C15.7674 16.4372 15.8621 16.5506 15.9311 16.6777C16.6768 18.0974 16.9174 19.6011 16.6492 21.1791C16.4756 22.194 16.156 23.1482 15.4951 23.9754C14.8895 24.7321 14.136 25.1604 13.1536 25.178C12.9326 25.1819 12.7136 25.1838 12.4927 25.1838C9.4094 25.1838 6.32807 25.1838 3.24476 25.1858C2.43004 25.1858 2.00986 25.6082 2.00789 26.4197C2.00592 27.4385 2.00592 28.4572 2.00789 29.476C2.00789 30.397 2.39848 30.7881 3.31972 30.7881C6.66342 30.7881 10.0091 30.7705 13.3528 30.7959C15.0532 30.8096 16.5841 30.3247 17.957 29.3704C19.8745 28.0388 21.066 26.1713 21.8176 24.0047C22.3305 22.5284 22.4094 20.9973 22.3798 19.4505C22.3186 16.2827 21.1982 13.5549 18.8625 11.3844C17.4303 10.0527 15.72 9.26275 13.7 9.27252C12.0331 9.27839 10.3662 9.27252 8.69923 9.27252Z" fill="white"/>
<path fill-rule="evenodd" clip-rule="evenodd" d="M3.22882 1.49576H11.3444C12.0865 1.49576 12.8286 1.49629 13.5707 1.49682C15.3025 1.49805 17.0346 1.49928 18.7677 1.49381C22.7249 1.48208 26.112 2.89976 29.0098 5.51612C29.2448 5.72834 29.473 5.94455 29.6946 6.16473C27.6587 7.05432 26.0287 8.69981 25.1592 10.7464C24.3902 9.95794 23.5015 9.27806 22.4822 8.72694C21.2079 8.03863 19.8013 7.77269 18.3573 7.76878C13.3447 7.75705 8.33413 7.75509 3.32154 7.77269C2.46736 7.77464 1.97814 7.28774 1.99984 6.45473C2.0227 5.60412 2.01806 4.75351 2.01341 3.9029C2.01124 3.50594 2.00907 3.10899 2.0097 2.71204C2.01167 1.92205 2.43777 1.49576 3.22882 1.49576ZM28.6543 21.5918C28.3485 24.3849 27.3127 26.8712 25.3604 28.9774C24.2853 30.1389 23.0799 31.1264 21.5551 31.6582C20.4168 32.0552 19.2431 32.2351 18.0358 32.2331C13.0982 32.2292 8.15856 32.2312 3.22093 32.2331C2.44369 32.2331 2.0097 32.6614 2.00773 33.426C2.00378 34.7048 2.00576 35.9837 2.00773 37.2605C2.0097 38.0916 2.42397 38.5042 3.26236 38.5042C4.30396 38.5042 5.34548 38.5043 6.38695 38.5044C10.5567 38.5047 14.7256 38.505 18.8959 38.5003C19.3772 38.5003 19.8605 38.469 20.3399 38.424C22.3757 38.2343 24.2774 37.6106 26.0449 36.6035C29.7476 34.4956 32.247 31.3591 33.8626 27.4893C34.513 25.9302 34.8842 24.3129 35.063 22.6531C34.4561 22.787 33.8254 22.8576 33.1783 22.8576C31.5215 22.8576 29.9728 22.3949 28.6543 21.5918Z" fill="white"/>
</g>
<path d="M47.9971 29.0376C48.6891 30.0553 50.0414 30.3547 51.0015 29.7019C51.9616 29.049 52.1804 27.6814 51.4884 26.6637L38.5755 7.67294C37.8836 6.65524 36.5312 6.35582 35.5711 7.00865C34.6111 7.66147 34.3923 9.02913 35.0843 10.0468L47.9971 29.0376Z" fill="#FC6803"/>
<path d="M36.6244 13.8374L37.9235 15.5389L38.6641 14.9888L41.6314 12.7849L42.3745 12.233L41.0755 10.5316L41.7987 9.97815L47.2069 5.94484L47.2069 5.94468C44.2949 5.31726 41.5193 5.53226 39.0839 6.42245C38.4614 6.64998 37.871 6.92481 37.2981 7.23837C37.2969 7.23901 37.2958 7.23964 37.2946 7.24027C36.2519 7.81121 35.3018 8.52078 34.4571 9.3512C34.4562 9.35212 34.4552 9.35303 34.4543 9.35395C33.9893 9.81141 33.559 10.3051 33.1643 10.8335C31.6242 12.8961 30.6484 15.4783 30.4546 18.4192L35.8806 14.3896L36.6244 13.8374Z" fill="#6F6F6F"/>
</g>
<path d="M71.96 29V26.096H76.256C77.344 26.096 78.296 25.872 79.112 25.424C79.928 24.96 80.56 24.312 81.008 23.48C81.472 22.648 81.704 21.664 81.704 20.528C81.704 19.424 81.472 18.464 81.008 17.648C80.544 16.816 79.904 16.176 79.088 15.728C78.272 15.264 77.328 15.032 76.256 15.032H71.888V12.128H76.304C77.552 12.128 78.704 12.336 79.76 12.752C80.832 13.168 81.76 13.76 82.544 14.528C83.344 15.28 83.96 16.168 84.392 17.192C84.84 18.216 85.064 19.336 85.064 20.552C85.064 21.768 84.84 22.896 84.392 23.936C83.96 24.96 83.352 25.856 82.568 26.624C81.784 27.376 80.856 27.96 79.784 28.376C78.728 28.792 77.584 29 76.352 29H71.96ZM69.728 29V12.128H72.992V29H69.728ZM92.2657 29.24C91.2417 29.24 90.3297 29.024 89.5297 28.592C88.7457 28.16 88.1297 27.56 87.6817 26.792C87.2337 26.024 87.0097 25.136 87.0097 24.128V17.408H90.1777V24.056C90.1777 24.536 90.2577 24.952 90.4177 25.304C90.5777 25.64 90.8177 25.896 91.1377 26.072C91.4577 26.248 91.8337 26.336 92.2657 26.336C92.9217 26.336 93.4337 26.136 93.8017 25.736C94.1697 25.336 94.3537 24.776 94.3537 24.056V17.408H97.4977V24.128C97.4977 25.152 97.2737 26.048 96.8257 26.816C96.3937 27.584 95.7777 28.184 94.9777 28.616C94.1937 29.032 93.2897 29.24 92.2657 29.24ZM105.473 29.24C104.289 29.24 103.225 28.976 102.281 28.448C101.337 27.92 100.593 27.2 100.049 26.288C99.5054 25.376 99.2334 24.352 99.2334 23.216C99.2334 22.064 99.5054 21.032 100.049 20.12C100.593 19.208 101.337 18.488 102.281 17.96C103.241 17.416 104.305 17.144 105.473 17.144C106.385 17.144 107.225 17.312 107.993 17.648C108.761 17.984 109.425 18.464 109.985 19.088L107.969 21.128C107.665 20.792 107.297 20.536 106.865 20.36C106.449 20.184 105.985 20.096 105.473 20.096C104.897 20.096 104.377 20.232 103.913 20.504C103.465 20.76 103.105 21.12 102.833 21.584C102.577 22.032 102.449 22.568 102.449 23.192C102.449 23.8 102.577 24.344 102.833 24.824C103.105 25.288 103.465 25.656 103.913 25.928C104.377 26.184 104.897 26.312 105.473 26.312C106.001 26.312 106.473 26.224 106.889 26.048C107.321 25.856 107.689 25.584 107.993 25.232L110.033 27.272C109.441 27.912 108.761 28.4 107.993 28.736C107.225 29.072 106.385 29.24 105.473 29.24ZM117.004 29.24C115.836 29.24 114.78 28.976 113.836 28.448C112.908 27.904 112.164 27.176 111.604 26.264C111.06 25.336 110.788 24.304 110.788 23.168C110.788 22.032 111.06 21.016 111.604 20.12C112.148 19.208 112.892 18.488 113.836 17.96C114.78 17.416 115.828 17.144 116.98 17.144C118.164 17.144 119.22 17.416 120.148 17.96C121.092 18.488 121.836 19.208 122.38 20.12C122.924 21.016 123.196 22.032 123.196 23.168C123.196 24.304 122.924 25.336 122.38 26.264C121.836 27.176 121.092 27.904 120.148 28.448C119.22 28.976 118.172 29.24 117.004 29.24ZM116.98 26.312C117.572 26.312 118.092 26.184 118.54 25.928C119.004 25.656 119.356 25.288 119.596 24.824C119.852 24.344 119.98 23.8 119.98 23.192C119.98 22.584 119.852 22.048 119.596 21.584C119.34 21.12 118.988 20.76 118.54 20.504C118.092 20.232 117.572 20.096 116.98 20.096C116.404 20.096 115.892 20.232 115.444 20.504C114.996 20.76 114.644 21.12 114.388 21.584C114.132 22.048 114.004 22.584 114.004 23.192C114.004 23.8 114.132 24.344 114.388 24.824C114.644 25.288 114.996 25.656 115.444 25.928C115.892 26.184 116.404 26.312 116.98 26.312ZM125.689 24.296V21.44H133.993V24.296H125.689ZM137.111 29V12.128H139.415L146.255 23.072H144.935L151.751 12.128H154.055V29H150.815V17.72L151.439 17.912L146.687 25.544H144.479L139.727 17.912L140.375 17.72V29H137.111ZM157.165 29V17.408H160.333V29H157.165ZM158.749 15.536C158.237 15.536 157.813 15.368 157.477 15.032C157.141 14.68 156.973 14.248 156.973 13.736C156.973 13.24 157.141 12.816 157.477 12.464C157.813 12.112 158.237 11.936 158.749 11.936C159.277 11.936 159.701 12.112 160.021 12.464C160.357 12.816 160.525 13.24 160.525 13.736C160.525 14.248 160.357 14.68 160.021 15.032C159.701 15.368 159.277 15.536 158.749 15.536ZM170.919 29V22.352C170.919 21.664 170.703 21.104 170.271 20.672C169.839 20.24 169.279 20.024 168.591 20.024C168.143 20.024 167.743 20.12 167.391 20.312C167.039 20.504 166.759 20.776 166.551 21.128C166.359 21.48 166.263 21.888 166.263 22.352L165.039 21.728C165.039 20.816 165.231 20.024 165.615 19.352C166.015 18.664 166.559 18.128 167.247 17.744C167.951 17.36 168.743 17.168 169.623 17.168C170.471 17.168 171.231 17.384 171.903 17.816C172.575 18.232 173.103 18.784 173.487 19.472C173.871 20.144 174.063 20.872 174.063 21.656V29H170.919ZM163.119 29V17.408H166.263V29H163.119ZM182.139 29.24C180.923 29.24 179.843 28.984 178.899 28.472C177.955 27.944 177.203 27.224 176.643 26.312C176.099 25.4 175.827 24.36 175.827 23.192C175.827 22.04 176.091 21.016 176.619 20.12C177.163 19.208 177.899 18.488 178.827 17.96C179.755 17.416 180.787 17.144 181.923 17.144C183.043 17.144 184.027 17.4 184.875 17.912C185.739 18.408 186.411 19.096 186.891 19.976C187.387 20.84 187.635 21.824 187.635 22.928C187.635 23.136 187.619 23.352 187.587 23.576C187.571 23.784 187.531 24.024 187.467 24.296L177.723 24.32V21.968L186.003 21.944L184.731 22.928C184.699 22.24 184.571 21.664 184.347 21.2C184.139 20.736 183.827 20.384 183.411 20.144C183.011 19.888 182.515 19.76 181.923 19.76C181.299 19.76 180.755 19.904 180.291 20.192C179.827 20.464 179.467 20.856 179.211 21.368C178.971 21.864 178.851 22.456 178.851 23.144C178.851 23.848 178.979 24.464 179.235 24.992C179.507 25.504 179.891 25.904 180.387 26.192C180.883 26.464 181.459 26.6 182.115 26.6C182.707 26.6 183.243 26.504 183.723 26.312C184.203 26.104 184.619 25.8 184.971 25.4L186.819 27.248C186.259 27.904 185.571 28.4 184.755 28.736C183.955 29.072 183.083 29.24 182.139 29.24ZM189.58 29V17.408H192.724V29H189.58ZM192.724 22.592L191.5 21.776C191.644 20.352 192.06 19.232 192.748 18.416C193.436 17.584 194.428 17.168 195.724 17.168C196.284 17.168 196.788 17.264 197.236 17.456C197.684 17.632 198.092 17.928 198.46 18.344L196.492 20.6C196.316 20.408 196.1 20.264 195.844 20.168C195.604 20.072 195.324 20.024 195.004 20.024C194.332 20.024 193.78 20.24 193.348 20.672C192.932 21.088 192.724 21.728 192.724 22.592Z" fill="white"/>
<defs>
<clipPath id="clip0_14_53">
<rect width="60" height="40" fill="white"/>
</clipPath>
<clipPath id="clip1_14_53">
<rect width="33.2023" height="37.0123" fill="white" transform="translate(2 1.49383)"/>
</clipPath>
</defs>
</svg>
