<svg width="234" height="24" viewBox="0 0 234 24" fill="none" xmlns="http://www.w3.org/2000/svg">
<path d="M28.2978 7.88751C23.8909 12.2299 20.2574 15.7667 20.2252 15.7587C20.193 15.7506 16.5353 12.2138 12.1043 7.90362C7.66516 3.60146 4.01558 0.0727215 3.98335 0.0727215C3.95113 0.0727215 3.4194 1.14423 2.80711 2.45744L1.69531 4.85021L10.9441 14.0991C16.0358 19.1907 20.2172 23.3559 20.2413 23.3479C20.2655 23.3479 24.4468 19.2069 29.5385 14.1474L38.7873 4.93883L37.5547 2.47355L36.314 0.000213623L28.2978 7.88751Z" fill="white"/>
<path d="M2.77405 10.1997C2.72571 10.2803 2.25037 11.3034 1.71059 12.4797C1.17081 13.6559 0.695474 14.6711 0.655191 14.7436C0.598796 14.8483 1.36416 15.6378 4.37728 18.6026L8.16383 22.3328L9.91208 22.083C10.8708 21.9461 12.2404 21.7688 12.9494 21.6963C13.6583 21.6238 14.2948 21.5513 14.3593 21.5271C14.4801 21.4868 14.0128 21.0196 6.39946 13.5431C3.35411 10.5461 2.8385 10.0708 2.77405 10.1997Z" fill="white"/>
<path d="M31.7648 15.8068L25.9238 21.543L26.6086 21.5994C27.5271 21.688 30.3066 22.0425 31.3942 22.2197L32.2804 22.3567L36.075 18.6265L39.8776 14.8883L38.79 12.5358C38.1938 11.2387 37.6782 10.1592 37.6541 10.127C37.6218 10.1028 34.9713 12.6567 31.7648 15.8068Z" fill="white"/>
<path d="M0.887266 21.9861C0.371651 23.0979 -0.0231164 24.0002 0.00105306 24.0002C0.033279 24.0002 0.347482 23.9277 0.710023 23.8472C1.06451 23.7585 2.15213 23.5169 3.11891 23.3154C4.09374 23.114 4.89939 22.9287 4.91551 22.9207C4.94773 22.8804 1.94266 19.972 1.87016 19.972C1.84599 19.972 1.39482 20.8743 0.887266 21.9861Z" fill="white"/>
<path d="M37.0344 21.4623C36.1965 22.284 35.5279 22.9527 35.5681 22.9527C35.6406 22.9527 39.2338 23.7181 39.9347 23.8792C40.1926 23.9436 40.4262 23.9759 40.4423 23.9598C40.4906 23.9114 38.6699 19.9718 38.6135 19.9718C38.5893 19.9799 37.8803 20.6485 37.0344 21.4623Z" fill="white"/>
<path d="M59.3433 0.895508L64.1791 19.1641H64.5373L69.3731 0.895508H76.6268V23.4626H72.5074V5.28356H72.1492L67.3134 23.4626H61.3134L56.4776 5.28356H56.1194V23.4626H52V0.895508H59.3433Z" fill="white"/>
<path d="M82.537 8.23884C83.7011 7.43287 85.3131 6.98511 87.1937 6.98511C89.3429 6.98511 90.9549 7.52242 92.2086 8.59704C93.4623 9.67167 93.9996 11.1941 93.9996 13.1642V23.4627H90.1489V21.5821H89.7011C89.4325 22.1194 88.9847 22.6567 88.3578 23.194C87.731 23.7313 86.6564 23.9105 85.4026 23.9105C83.7011 23.9105 82.2683 23.4627 81.1937 22.5672C80.1191 21.6716 79.4922 20.4179 79.4922 18.806C79.4922 17.194 80.0295 15.9403 81.1937 15.1343C82.3579 14.2388 83.7907 13.7911 85.6713 13.7911H90.0593V12.8955C90.0593 12.0896 89.7907 11.4627 89.3429 11.015C88.8056 10.5672 88.0892 10.2985 87.1041 10.2985C86.119 10.2985 85.4026 10.5672 84.8653 11.015C84.328 11.4627 83.9698 12.0896 83.7907 12.8955L80.0295 11.6418C80.5668 10.209 81.3728 9.13436 82.537 8.23884ZM84.328 20.0597C84.7758 20.4179 85.4026 20.597 86.2981 20.597C87.4623 20.597 88.3578 20.2388 89.0743 19.612C89.7907 18.9851 90.1489 18.0896 90.1489 17.0149V16.7463H86.0295C85.3131 16.7463 84.6862 16.9254 84.2384 17.2836C83.7907 17.6418 83.6116 18.0896 83.6116 18.6269C83.6116 19.2537 83.8802 19.7015 84.328 20.0597Z" fill="white"/>
<path d="M114.149 7.43281L106.626 13.8806L113.969 23.4626H108.955L103.671 16.388L101.432 18.2686V23.4626H97.4023V0.895508H101.432V13.3432L108.059 7.43281H114.149Z" fill="white"/>
<path d="M115.223 11.015C115.94 9.76122 116.835 8.77615 118.089 8.05973C119.343 7.34332 120.686 6.98511 122.298 6.98511C123.82 6.98511 125.164 7.34332 126.417 8.05973C127.582 8.77615 128.477 9.76122 129.104 11.015C129.731 12.2687 130.089 13.7015 130.089 15.3134V16.6567H118.447C118.447 17.7314 118.895 18.6269 119.611 19.3433C120.328 20.0597 121.313 20.4179 122.477 20.4179C123.552 20.4179 124.268 20.1493 124.895 19.7015C125.522 19.2537 125.88 18.6269 126.238 17.9105L129.552 19.6119C128.029 22.3881 125.701 23.8209 122.388 23.8209C120.776 23.8209 119.432 23.4627 118.179 22.7463C116.925 22.0299 116.029 21.0448 115.313 19.7911C114.597 18.5373 114.238 17.0149 114.238 15.3134C114.238 13.612 114.596 12.2687 115.223 11.015ZM124.805 11.3732C124.179 10.8358 123.283 10.4776 122.298 10.4776C121.223 10.4776 120.417 10.7463 119.701 11.3732C118.985 11.9105 118.626 12.7164 118.537 13.612H126.059C125.791 12.7164 125.432 11.9105 124.805 11.3732Z" fill="white"/>
<path d="M136.896 9.67137C137.165 8.8654 137.702 8.23854 138.329 7.88033C138.956 7.52212 139.851 7.34302 140.926 7.34302H142.627V10.746H140.21C139.135 10.746 138.239 11.0147 137.613 11.6415C136.986 12.1788 136.627 13.0744 136.627 14.149V23.4624H132.598V7.43257H136.627V9.67137H136.896Z" fill="white"/>
<path d="M155.97 0.895508L161.075 19.9701H161.433L166.538 0.895508H170.926L164.657 23.4626H157.941L151.672 0.895508H155.97V0.895508Z" fill="white"/>
<path d="M172.716 0.805968C173.253 0.268656 173.97 0 174.776 0C175.582 0 176.298 0.268656 176.836 0.805968C177.373 1.34328 177.641 1.97015 177.641 2.77611C177.641 3.58208 177.373 4.2985 176.836 4.74626C176.298 5.28357 175.582 5.55223 174.776 5.55223C173.97 5.55223 173.253 5.28357 172.716 4.74626C172.179 4.20895 171.91 3.58208 171.91 2.77611C171.91 1.97015 172.179 1.34328 172.716 0.805968ZM176.836 23.4626H172.806V7.43282H176.836V23.4626Z" fill="white"/>
<path d="M184.448 9.85087H184.806C185.612 8.05983 187.313 7.16431 189.731 7.16431C190.985 7.16431 192.06 7.43296 192.955 8.05983C193.94 8.59714 194.657 9.40311 195.105 10.3882C195.642 11.3733 195.91 12.5374 195.91 13.8807V23.4628H191.791V14.0598C191.791 12.8956 191.522 11.9106 190.896 11.3733C190.358 10.7464 189.463 10.4777 188.388 10.4777C187.134 10.4777 186.149 10.9255 185.522 11.7315C184.806 12.5374 184.448 13.7016 184.448 15.224V23.4628H180.418V7.43296H184.448V9.85087Z" fill="white"/>
<path d="M199.403 11.015C200.119 9.76122 201.104 8.77615 202.358 8.05973C203.612 7.34332 205.045 6.98511 206.656 6.98511C208.268 6.98511 209.701 7.34332 210.955 8.05973C212.209 8.77615 213.194 9.76122 213.91 11.015C214.627 12.2687 214.985 13.7911 214.985 15.4926C214.985 17.194 214.627 18.7164 213.91 19.9702C213.194 21.2239 212.209 22.209 210.955 22.9254C209.701 23.6418 208.268 24 206.656 24C205.045 24 203.612 23.6418 202.358 22.9254C201.104 22.209 200.119 21.2239 199.403 19.9702C198.686 18.7164 198.328 17.194 198.328 15.4926C198.328 13.7911 198.686 12.2687 199.403 11.015ZM203.612 19.0746C204.418 19.9702 205.492 20.4179 206.746 20.4179C208 20.4179 209.074 19.9702 209.88 19.0746C210.686 18.1791 211.045 17.0149 211.045 15.4926C211.045 13.9702 210.686 12.806 209.88 11.9105C209.074 11.015 208 10.5672 206.746 10.5672C205.492 10.5672 204.418 11.015 203.612 11.9105C202.806 12.806 202.448 13.9702 202.448 15.4926C202.448 17.0149 202.806 18.1791 203.612 19.0746Z" fill="white"/>
<path d="M229.581 23.4626V21.3134H229.223C227.969 23.0149 226.268 23.9104 223.939 23.9104C222.686 23.9104 221.432 23.5522 220.357 22.8358C219.283 22.1193 218.387 21.1343 217.671 19.8805C216.954 18.6268 216.686 17.1044 216.686 15.4029C216.686 13.7015 217.044 12.2686 217.671 10.9253C218.297 9.67161 219.193 8.68654 220.357 7.97012C221.432 7.2537 222.686 6.8955 223.939 6.8955C226.268 6.8955 227.969 7.70147 229.133 9.40295H229.492V0.895508H233.521V23.4626H229.581ZM222.059 11.8209C221.253 12.7164 220.805 13.8806 220.805 15.4925C220.805 17.0149 221.253 18.2686 222.059 19.1641C222.865 20.0597 223.939 20.5074 225.193 20.5074C226.447 20.5074 227.521 20.0597 228.327 19.1641C229.133 18.2686 229.581 17.1044 229.581 15.4925C229.581 13.9701 229.133 12.7164 228.327 11.8209C227.521 10.9253 226.447 10.4776 225.193 10.4776C223.939 10.4776 222.865 10.9253 222.059 11.8209Z" fill="white"/>
</svg>
